<svg xmlns="http://www.w3.org/2000/svg" xmlns:xlink="http://www.w3.org/1999/xlink" viewBox="0,0,256,256" width="50px" height="50px" fill-rule="nonzero"><g fill="#751616" fill-rule="nonzero" stroke="none" stroke-width="1" stroke-linecap="butt" stroke-linejoin="miter" stroke-miterlimit="10" stroke-dasharray="" stroke-dashoffset="0" font-family="none" font-weight="none" font-size="none" text-anchor="none" style="mix-blend-mode: normal"><g transform="scale(5.12,5.12)"><path d="M25,2c-12.682,0 -23,10.317 -23,23c0,12.683 10.318,23 23,23c12.682,0 23,-10.317 23,-23c0,-12.683 -10.318,-23 -23,-23zM15.11719,17.08203c1.474,0 2.57452,1.05445 2.72852,2.31445c0.139,1.135 -0.31522,2.11695 -1.57422,2.75195c-0.642,0.326 -0.96055,0.3093 -1.06055,0.1543c-0.067,-0.104 -0.02939,-0.27777 0.09961,-0.38477c1.184,-0.989 1.20541,-1.80131 1.06641,-2.94531c-0.09,-0.736 -0.57419,-1.20703 -1.11719,-1.20703c-2.327,0 -5.66517,5.21862 -5.20117,9.01563c0.181,1.48 1.09017,3.19336 2.95117,3.19336c0.62,0 1.27633,-0.1748 1.86133,-0.4668c1.021,-0.522 1.59969,-0.93438 2.17969,-1.60937c-0.143,-1.756 1.36347,-3.96094 3.60547,-3.96094c0.97,0 1.77219,0.38992 1.86719,1.16992c0.119,0.973 -0.70853,1.16797 -1.01953,1.16797c-0.272,0 -0.70828,-0.07708 -0.73828,-0.33008c-0.033,-0.273 0.58677,-0.11723 0.50977,-0.74023c-0.048,-0.389 -0.45184,-0.52539 -0.83984,-0.52539c-1.396,0 -2.16753,1.94725 -2.01953,3.15625c0.067,0.546 0.34756,1.08984 0.85156,1.08984c0.407,0 0.99275,-0.58441 1.21875,-1.44141c0.143,-0.584 0.69647,-0.97266 1.10547,-0.97266c0.213,0 0.36072,0.0975 0.38672,0.3125c0.009,0.078 0.00156,0.17502 -0.02344,0.29102c-0.047,0.253 -0.24047,1.09748 -0.23047,1.27148c0.007,0.152 0.09342,0.35938 0.35742,0.35938c0.209,0 0.97941,-0.41373 1.69141,-1.05273c0.224,-1.156 0.49948,-2.58622 0.52148,-2.69922c0.087,-0.469 0.25603,-0.95117 1.20703,-0.95117c0.195,0 0.34114,0.09608 0.36914,0.33008c0.009,0.077 0.00156,0.17697 -0.02344,0.29297l-0.26562,1.20117c0.833,-1.111 2.13025,-1.92578 2.90625,-1.92578c0.33,0 0.58395,0.17439 0.62695,0.52539c0.024,0.195 -0.03311,0.52453 -0.16211,0.89453c-0.276,0.759 -0.58697,1.90081 -0.79297,2.88281c-0.044,0.209 0.02916,0.52344 0.41016,0.52344c0.305,0 1.28422,-0.37202 2.07422,-1.41602c-0.005,-0.148 -0.00781,-0.29722 -0.00781,-0.44922c0,-0.818 0.05789,-1.4808 0.21289,-1.9668c0.155,-0.507 0.7957,-0.99219 1.2207,-0.99219c0.214,0 0.36914,0.11661 0.36914,0.34961c0,0.078 -0.01959,0.17644 -0.05859,0.27344c-0.29,0.857 -0.44531,1.65512 -0.44531,2.45313c0,0.448 0.09731,1.17006 0.19531,1.53906c0.019,0.078 0.03824,0.15625 0.11523,0.15625c0.136,0 1.04608,-0.89728 1.70508,-1.98828c-0.583,-0.37 -0.91211,-1.05167 -0.91211,-1.88867c0,-1.402 0.83444,-2.12305 1.64844,-2.12305c0.64,0 1.2207,0.46734 1.2207,1.40234c0,0.585 -0.23255,1.24667 -0.56055,1.88867c0,0 0.13631,0.01953 0.19531,0.01953c0.504,0 0.89147,-0.23428 1.10547,-0.48828c0.097,-0.11 0.18744,-0.19609 0.27344,-0.24609c0.649,-0.784 1.6008,-1.35156 2.7168,-1.35156c0.95,0 1.77023,0.37139 1.86523,1.15039c0.121,0.993 -0.72658,1.1875 -1.01758,1.1875c-0.29,0 -0.72681,-0.07903 -0.75781,-0.33203c-0.031,-0.253 0.60525,-0.11575 0.53125,-0.71875c-0.048,-0.39 -0.4538,-0.54687 -0.8418,-0.54687c-1.3,0 -2.19349,1.73377 -2.02148,3.13477c0.069,0.565 0.32999,1.11133 0.83398,1.11133c0.407,0 1.01623,-0.58541 1.24023,-1.44141c0.144,-0.565 0.69356,-0.97266 1.10156,-0.97266c0.194,0 0.36263,0.09803 0.39063,0.33203c0.014,0.117 -0.033,0.37016 -0.25,1.28516c-0.089,0.389 -0.10722,0.71919 -0.07422,0.99219c0.07,0.565 0.32836,0.93639 0.56836,1.15039c0.087,0.077 0.13753,0.17437 0.14453,0.23438c0.02,0.153 -0.09701,0.28906 -0.29102,0.28906c-0.058,0 -0.13522,-0.00006 -0.19922,-0.03906c-0.999,-0.409 -1.41425,-1.09038 -1.53125,-1.73437c-0.385,0.487 -0.89497,0.75781 -1.41797,0.75781c-0.892,0 -1.76272,-0.77902 -1.88672,-1.79102c-0.051,-0.416 -0.00124,-0.86373 0.13477,-1.30273c-0.362,0.224 -0.75256,0.34766 -1.10156,0.34766c-0.117,0 -0.21213,0.00142 -0.32812,-0.01758c-0.872,1.265 -1.78442,2.14125 -2.48242,2.53125c-0.29,0.156 -0.56086,0.23438 -0.75586,0.23438c-0.156,0 -0.32925,-0.03978 -0.40625,-0.17578c-0.181,-0.304 -0.30209,-0.7827 -0.37109,-1.3457c-0.919,1.007 -2.2085,1.51563 -2.8125,1.51563c-0.699,0 -1.0802,-0.42927 -1.1582,-1.07227c-0.026,-0.246 -0.01861,-0.49328 0.02539,-0.73828c0.231,-1.441 0.76152,-2.33638 0.72852,-2.60937c-0.01,-0.078 -0.05433,-0.11719 -0.11133,-0.11719c-0.446,0 -2.012,1.6165 -2.25,2.6875l-0.18555,0.85742c-0.121,0.604 -0.71409,0.99219 -1.12109,0.99219c-0.194,0 -0.34119,-0.09555 -0.36719,-0.31055c-0.008,-0.098 0.00044,-0.19697 0.02344,-0.29297l0.08594,-0.45117c-0.845,0.632 -1.75564,1.05859 -2.18164,1.05859c-0.583,0 -0.90939,-0.31325 -1.02539,-0.78125c-0.385,0.507 -0.8945,0.78125 -1.4375,0.78125c-0.693,0 -1.36064,-0.45772 -1.68164,-1.13672c-0.457,0.513 -0.99653,1.01373 -1.64453,1.42773c-0.956,0.605 -2.02125,1.0918 -3.28125,1.0918c-1.163,0 -2.15126,-0.62291 -2.69727,-1.12891c-0.81,-0.759 -1.23923,-1.88887 -1.36523,-2.92187c-0.398,-3.252 1.58239,-7.51772 4.65039,-9.38672c0.704,-0.429 1.49198,-0.64258 2.20899,-0.64258zM34.22266,23.4668c-0.253,0 -0.34961,0.35058 -0.34961,0.64258c0,0.546 0.27209,1.11147 0.62109,1.48047c0.136,-0.37 0.21289,-0.74033 0.21289,-1.11133c0,-0.7 -0.27137,-1.01172 -0.48437,-1.01172z"></path></g></g></svg>